<?xml version="1.0" standalone="no"?>
<!DOCTYPE svg PUBLIC "-//W3C//DTD SVG 20010904//EN"
 "http://www.w3.org/TR/2001/REC-SVG-20010904/DTD/svg10.dtd">
<svg version="1.0" xmlns="http://www.w3.org/2000/svg"
 width="494.000000pt" height="494.000000pt" viewBox="0 0 494.000000 494.000000"
 preserveAspectRatio="xMidYMid meet">
<metadata>
Created by potrace 1.11, written by Peter Selinger 2001-2013
</metadata>
<g transform="translate(0.000000,494.000000) scale(0.100000,-0.100000)"
fill="#000000" stroke="none">
<path d="M2580 4728 c-85 -49 -180 -104 -210 -120 -128 -71 -590 -334 -654
-372 -17 -10 -148 -85 -291 -166 -143 -81 -276 -157 -295 -168 -19 -11 -56
-32 -82 -46 -26 -14 -59 -34 -75 -43 l-28 -18 0 -460 0 -460 -105 -72 c-58
-40 -110 -77 -116 -82 -5 -4 -21 -14 -35 -21 -13 -7 -26 -16 -29 -19 -10 -12
-69 -51 -78 -51 -4 0 -23 -14 -40 -31 l-32 -31 0 -478 c0 -440 1 -479 18 -499
9 -12 28 -22 42 -23 24 -1 250 31 260 37 13 8 130 16 130 8 0 -4 9 -48 20 -98
143 -673 691 -1216 1374 -1364 52 -12 126 -24 163 -28 85 -10 338 -10 418 -1
320 37 626 163 895 368 88 67 250 230 314 315 24 33 53 71 63 85 28 36 85 135
123 210 18 36 38 76 45 90 51 99 123 379 140 545 6 56 9 248 5 270 -7 34 9 48
143 123 78 44 166 93 196 108 29 16 59 41 67 56 11 22 14 114 14 498 0 466 0
470 -21 491 -19 19 -29 21 -83 15 -61 -6 -70 -8 -181 -27 -33 -6 -76 -13 -96
-15 l-37 -5 1 261 c0 150 -3 264 -9 269 -5 5 -169 102 -364 216 -195 114 -389
229 -430 255 -41 26 -104 63 -140 82 -69 37 -136 76 -293 170 -54 32 -100 58
-103 58 -3 0 -17 8 -32 19 -35 24 -409 241 -414 240 -1 0 -73 -41 -158 -91z"/>
</g>
</svg>
